<svg width="30" height="30" viewBox="0 0 30 30" fill="none" xmlns="http://www.w3.org/2000/svg">
<g clip-path="url(#clip0)">
<path d="M27.9914 7.47503C26.6522 5.82899 24.833 4.52867 22.534 3.57441C20.235 2.62016 17.7237 2.1431 15.0005 2.1431C12.2773 2.1431 9.76604 2.62016 7.46696 3.57441C5.16789 4.52867 3.34875 5.82875 2.00943 7.47503C0.670058 9.1212 0.000488281 10.9152 0.000488281 12.8572C0.000488281 14.5312 0.505348 16.0997 1.51548 17.5617C2.52561 19.0237 3.90656 20.2516 5.65897 21.2448C5.53606 21.6911 5.391 22.1151 5.22353 22.5172C5.05612 22.919 4.90549 23.2483 4.77156 23.5051C4.63752 23.7616 4.45633 24.0463 4.22736 24.3585C3.99873 24.6712 3.82576 24.8917 3.70854 25.0201C3.59144 25.1486 3.39894 25.3603 3.13091 25.6562C2.86324 25.9518 2.69014 26.1447 2.6121 26.234C2.60078 26.2397 2.55622 26.2896 2.47811 26.3849C2.40007 26.4796 2.3609 26.5267 2.3609 26.5267L2.26045 26.6774C2.20457 26.7607 2.17948 26.8139 2.18499 26.8359C2.19062 26.8584 2.17948 26.9142 2.15157 27.0033C2.1236 27.0928 2.12647 27.1598 2.15989 27.2043V27.2212C2.20457 27.4108 2.29376 27.5644 2.42769 27.6815C2.56161 27.7983 2.71254 27.8569 2.87977 27.8569H2.96356C3.68919 27.7674 4.32528 27.6451 4.87206 27.4887C7.79626 26.7411 10.3633 25.3906 12.573 23.4373C13.41 23.5266 14.2192 23.5712 15.0003 23.5712C17.7235 23.5712 20.2349 23.0942 22.5339 22.1396C24.8329 21.1852 26.6521 19.8854 27.9913 18.2393C29.3307 16.5932 30.0004 14.7991 30.0004 12.8571C30.0004 10.9154 29.3309 9.1212 27.9914 7.47503ZM26.108 17.1263C24.9414 18.443 23.3678 19.4895 21.3868 20.265C19.4058 21.0404 17.2768 21.4285 15 21.4285C14.3193 21.4285 13.5939 21.3839 12.8239 21.2944L11.8696 21.1943L11.1497 21.8306C9.77718 23.0361 8.24243 23.9901 6.54602 24.6933C7.05932 23.7895 7.44996 22.8295 7.71793 21.8141L8.1699 20.2068L6.71348 19.37C5.26258 18.5437 4.13829 17.5644 3.34013 16.4315C2.54209 15.299 2.14324 14.1073 2.14324 12.8574C2.14324 11.3283 2.72638 9.90546 3.8926 8.58848C5.05917 7.27162 6.63262 6.22525 8.61372 5.44961C10.5948 4.67391 12.7235 4.28573 15.0004 4.28573C17.2771 4.28573 19.4058 4.67373 21.3867 5.44938C23.3676 6.22508 24.9413 7.27139 26.108 8.58825C27.2742 9.90522 27.8573 11.3282 27.8573 12.8571C27.8573 14.3861 27.2742 15.8093 26.108 17.1263Z" fill="#004AF6"/>
</g>
<defs>
<clipPath id="clip0">
<rect width="30" height="30" fill="white"/>
</clipPath>
</defs>
</svg>
